<svg width="600" height="600" viewBox="0 0 600 600" fill="none" xmlns="http://www.w3.org/2000/svg">
<g clip-path="url(#clip0_5_12)">
<path fill-rule="evenodd" clip-rule="evenodd" d="M272 0.59501C249.96 2.99001 233.529 6.15601 214.618 11.651C180.035 21.699 142.417 41.338 113.133 64.632C100.886 74.375 74.677 100.601 64.665 113.133C34.63 150.729 13.895 196.319 4.48401 245.45C0.767007 264.856 0.128007 274.558 0.460007 306.5C0.787007 337.982 1.66601 345.499 8.09001 371.786C20.698 423.373 46.31 469.919 82.4 506.831C111.074 536.159 133.372 552.751 166 569.039C195.128 583.579 221.106 591.799 256.5 597.674C271.927 600.235 322.613 600.227 341 597.662C395.764 590.019 446.706 567.93 490.008 533.049C533.034 498.391 567.409 448.584 585.285 395C592.034 374.77 599 341.45 599 329.401C599 326.372 599.451 324 600.027 324C600.705 324 601.013 315.678 600.932 299.5C600.864 286.025 600.5 275 600.121 275C599.743 275 598.886 269.938 598.217 263.75C593.109 216.503 573.622 166.066 544.996 126C530.482 105.686 507.109 80.928 488 65.626C464.279 46.632 429.956 27.281 402.675 17.522C386.909 11.882 363.631 5.76801 347 2.89901C336.472 1.08301 329.847 0.70201 305 0.47901C288.775 0.33401 273.925 0.38601 272 0.59501ZM357 30.943C331.425 34.703 295.766 39.938 277.759 42.575C259.751 45.213 244.462 47.714 243.784 48.133C242.848 48.712 243.084 49.993 244.759 53.441C246.461 56.944 267.578 92.952 268.338 93.648C268.427 93.729 273.68 94.265 280.011 94.839C294.699 96.169 305.541 99.561 315.131 105.826C335.716 119.273 343.876 140.591 334.538 156.525C331.692 161.381 326.99 165.749 320.54 169.53C318.043 170.993 316 172.577 316 173.049C316 173.522 318.153 177.642 320.784 182.204C332.191 201.983 335.515 207 337.211 207C338.163 207 351.119 205.2 366 203C380.881 200.8 394.315 199 395.853 199C398.197 199 399.55 200.255 404.205 206.75C412.701 218.604 426.165 231.042 435.208 235.392C441.487 238.412 443.784 239 449.298 239C457.369 239 459 237.36 459 229.246C459 222.64 456.352 214.658 449.887 201.775C447.131 196.284 445.019 191.648 445.193 191.474C445.367 191.299 457.766 189.401 472.746 187.254C487.726 185.108 500.253 183.08 500.584 182.749C501.211 182.122 479.638 144.891 434.672 69C412.208 31.085 407.951 24.471 405.903 24.303C404.581 24.195 382.575 27.183 357 30.943ZM169.5 57.947C121.766 64.981 116.161 65.931 115.433 67.108C114.81 68.116 120.372 77.827 173.789 169C235.472 274.281 246.234 292.453 248.034 294.368C249.676 296.113 250.47 296.158 260.145 295.061C269.584 293.991 329.225 285.605 346.832 282.872C353.091 281.901 354.096 281.473 353.698 279.951C353.198 278.041 333.035 243.549 301.7 191C291.042 173.125 282.462 158.324 282.634 158.11C282.806 157.895 288.022 156.873 294.224 155.839C307.787 153.576 313.75 150.901 316.444 145.869C318.142 142.699 318.236 141.731 317.188 138.234C314.936 130.716 305.383 123.069 292.324 118.329C286.727 116.297 284.08 116 271.569 116H257.229L240.713 88.25C231.63 72.988 222.801 58.587 221.093 56.25C218.166 52.244 217.715 52.006 213.244 52.1C210.635 52.155 190.95 54.786 169.5 57.947ZM110.578 108.25C110.218 109.487 103.879 134.343 96.491 163.485L83.058 216.47L102.884 249.852L122.71 283.235L120.244 290.867C117.246 300.146 116.155 318.544 117.925 329.955C120.432 346.115 128.715 363.016 136.828 368.529C143.682 373.187 144.842 372.075 152.721 353.294C155.306 347.131 157.5 342.181 157.597 342.294C157.693 342.407 168.245 359.825 181.045 381C208.001 425.591 214.624 435.918 216.799 436.753C218.839 437.536 228.021 436.349 281.388 428.4C313.626 423.598 325.819 421.422 326.684 420.314C327.56 419.193 351.797 323.421 355.586 306.106C356.11 303.715 356.104 303.713 349.305 304.4C345.562 304.778 321.125 308.021 295 311.608C268.875 315.194 245.25 318.366 242.5 318.656L237.5 319.184L216.027 282.342C141.534 154.532 112.878 106 111.903 106C111.535 106 110.938 107.013 110.578 108.25ZM495.476 205.46C478.231 208.241 476.671 208.7 477.462 210.76C479.017 214.814 480.185 222.121 480.297 228.5C480.552 243.019 475.6 251.617 463.557 257.569C457.102 260.76 455.05 261.294 449.26 261.292C437.972 261.29 426.578 257.092 414.5 248.486C408.506 244.214 394.252 230.107 390.334 224.569L388.26 221.637L371.38 223.91C350.79 226.683 349 227.019 349 228.119C349 228.597 356.64 241.775 365.978 257.405L382.956 285.822L366.919 351.019C358.099 386.877 351.147 416.481 351.472 416.805C352.021 417.355 390.044 412.289 390.763 411.571C390.943 411.391 392.187 408.218 393.528 404.521C401.719 381.939 413.588 366.776 429 359.203C433.853 356.818 435.89 356.461 446.316 356.165C457.456 355.849 458.445 355.983 463.616 358.513C470.632 361.946 478.122 369.439 481.297 376.203C482.664 379.116 484.514 385.07 485.407 389.432C486.3 393.795 487.137 397.438 487.266 397.528C488.017 398.052 515.138 393.258 515.918 392.463C516.75 391.615 548 269.797 548 267.402C548 266.1 520.719 215.807 516.19 208.759C514.16 205.601 511.825 203.058 511 203.108C510.175 203.158 503.189 204.217 495.476 205.46ZM74.652 250.647C72.701 256.647 61.299 302.467 56.962 321.735L53.758 335.97L69.058 362.235C113.318 438.214 172.837 538 173.896 538C174.856 538 177.463 528.343 189.079 481.765L197.242 449.029L192.003 439.765C186.06 429.254 161.132 387.984 159.877 386.577C159.39 386.03 156.899 386.844 153.777 388.57C143.664 394.159 130.593 391.959 121.359 383.111C112.089 374.23 105.895 363.737 100.338 347.5L96.573 336.5L96.568 317C96.565 302.34 96.96 295.982 98.161 291.386L99.759 285.271L87.994 265.532L76.229 245.793L74.652 250.647ZM0.320007 285C0.320007 288.575 0.502007 290.038 0.723007 288.25C0.945007 286.462 0.945007 283.538 0.723007 281.75C0.502007 279.962 0.320007 281.425 0.320007 285ZM0.409007 308.5C0.408007 317.85 0.558007 321.81 0.743007 317.299C0.928007 312.789 0.929007 305.139 0.745007 300.299C0.562007 295.46 0.410007 299.15 0.409007 308.5ZM437.668 378.914C431.087 382.269 427.295 385.787 422.526 392.961C417.467 400.57 412.896 411.957 410.97 421.745C410.297 425.165 409.24 428.658 408.62 429.506C407.768 430.671 393.326 433.124 349.496 439.548C233.951 456.483 217.634 458.966 216.89 459.727C216.148 460.484 188 571.972 188 574.152C188 575.481 184.418 575.904 249.5 566.887C355.24 552.238 480.29 534.108 481.039 533.319C481.906 532.405 510 421.12 510 418.599C510 416.379 507.031 416.502 483.777 419.686C472.93 421.172 463.773 422.107 463.43 421.763C463.086 421.42 463.355 417.115 464.027 412.197C466.339 395.278 463.649 383.196 456.613 378.906C452.372 376.319 442.75 376.324 437.668 378.914Z" fill="#411B67"/>
<path fill-rule="evenodd" clip-rule="evenodd" d="M74.544 252.496C71.476 263.05 57.088 322.416 55.864 329.571L54.654 336.641L69.494 362.071C115.839 441.486 172.837 537 173.884 537C174.344 537 179.616 517.445 185.598 493.545L196.474 450.091L193.317 443.688C190.837 438.659 167.69 399.687 160.391 388.251L158.955 386.001L154.818 388.739C151.484 390.946 149.276 391.548 143.447 391.843C133.154 392.362 126.141 389.111 117.554 379.835C98.912 359.7 91.2 326.11 97.6 292.921L99.062 285.342L87.636 266.055L76.209 246.769L74.544 252.496Z" fill="#C484E3"/>
<path fill-rule="evenodd" clip-rule="evenodd" d="M440.698 378.406C427.359 383.297 416.774 398.909 412.007 420.722C410.977 425.437 409.541 429.869 408.817 430.57C408.014 431.347 372.529 436.963 318 444.943C214.211 460.132 218.133 459.534 217.373 460.294C216.303 461.363 188.761 573.095 189.408 573.741C190.167 574.5 222.758 570.062 368.708 549.327C429.322 540.716 479.383 533.381 479.954 533.028C481.023 532.368 509 422.839 509 419.315C509 417.016 511.21 416.905 483.228 420.607C472.078 422.082 462.699 423.032 462.385 422.718C462.071 422.404 462.582 416.74 463.522 410.132C465.207 398.279 465.202 398.024 463.12 391.17C460.723 383.279 456.556 378 452.724 378C451.363 378 448.956 377.778 447.375 377.506C445.794 377.234 442.789 377.639 440.698 378.406Z" fill="#C484E3"/>
<path fill-rule="evenodd" clip-rule="evenodd" d="M495.476 205.46C478.231 208.241 476.671 208.7 477.462 210.76C479.017 214.814 480.185 222.121 480.297 228.5C480.552 243.019 475.6 251.617 463.557 257.569C457.102 260.76 455.05 261.294 449.26 261.292C437.972 261.29 426.578 257.092 414.5 248.486C408.506 244.214 394.252 230.107 390.334 224.569L388.26 221.637L371.38 223.91C350.79 226.683 349 227.019 349 228.119C349 228.597 356.64 241.775 365.978 257.405L382.956 285.822L366.919 351.019C358.099 386.877 351.147 416.481 351.472 416.805C352.021 417.355 390.044 412.289 390.763 411.571C390.943 411.391 392.187 408.218 393.528 404.521C401.719 381.939 413.588 366.776 429 359.203C433.853 356.818 435.89 356.461 446.316 356.165C457.456 355.849 458.445 355.983 463.616 358.513C470.632 361.946 478.122 369.439 481.297 376.203C482.664 379.116 484.514 385.07 485.407 389.432C486.3 393.795 487.137 397.438 487.266 397.528C488.017 398.052 515.138 393.258 515.918 392.463C516.75 391.615 548 269.797 548 267.402C548 266.1 520.719 215.807 516.19 208.759C514.16 205.601 511.825 203.058 511 203.108C510.175 203.158 503.189 204.217 495.476 205.46Z" fill="#C484E3"/>
<path fill-rule="evenodd" clip-rule="evenodd" d="M104.721 132.75C101.064 146.912 94.834 171.55 90.876 187.5L83.68 216.5L102.983 249C113.599 266.875 122.484 281.856 122.727 282.292C122.971 282.727 122.259 286.102 121.145 289.792C113.746 314.309 117.208 341.908 130.017 360.525C134.325 366.786 140.593 371.288 143.119 369.936C145.255 368.793 149.116 361.415 153.964 349.211C155.774 344.653 157.377 341.053 157.525 341.211C157.673 341.37 168.695 359.5 182.018 381.5C209.147 426.296 213.956 433.925 216.251 435.808C217.578 436.897 222.09 436.509 243.173 433.49C274.502 429.003 326.227 421.107 326.572 420.758C326.9 420.426 347.789 336.821 352.062 318.74C353.85 311.172 355.111 304.777 354.864 304.53C354.405 304.072 307.474 310.187 262.586 316.554C242.571 319.393 237.506 319.833 236.827 318.794C236.363 318.082 218.363 287.35 196.828 250.5C161.499 190.048 116.41 113.245 113.609 108.75C113.01 107.787 112.261 107 111.945 107C111.629 107 108.378 118.588 104.721 132.75ZM262.25 116.728C264.313 116.944 267.688 116.944 269.75 116.728C271.813 116.513 270.125 116.336 266 116.336C261.875 116.336 260.188 116.513 262.25 116.728Z" fill="#C484E3"/>
<path fill-rule="evenodd" clip-rule="evenodd" d="M212.5 52.772C202.942 53.883 131.915 64.266 124.607 65.621C117.685 66.905 115.996 67.548 116.449 68.727C117.147 70.548 173.589 167.202 216.756 240.5L248.558 294.5L256.374 294.256C263.201 294.043 344.346 282.955 350.642 281.375C351.939 281.05 353 280.456 353 280.057C353 279.284 333.287 245.679 300.821 191.106C289.895 172.739 281.077 157.594 281.227 157.451C281.377 157.307 286.783 156.296 293.24 155.205C311.782 152.073 318.113 147.749 316.529 139.301C315.741 135.103 308.73 127.204 302.606 123.615C293.243 118.128 286.62 116.651 271.03 116.573L256.561 116.5L242.466 92.767C218.056 51.666 218.374 52.09 212.5 52.772Z" fill="#C484E3"/>
<path fill-rule="evenodd" clip-rule="evenodd" d="M393.5 26.217C305.024 39.08 249.902 47.152 247.25 47.633C245.137 48.016 244 48.799 244 49.87C244 50.776 249.556 60.963 256.348 72.509L268.695 93.5L278.631 94.166C295.2 95.278 306.895 99.182 318.532 107.485C326.431 113.122 331.237 118.706 335.309 126.976C338.136 132.72 338.497 134.415 338.498 141.976C338.5 149.558 338.172 151.092 335.532 155.859C332.212 161.852 326.591 167.175 320.312 170.273L316.124 172.338L317.691 175.419C318.552 177.114 323.055 184.942 327.697 192.814C335.698 206.386 336.276 207.1 338.818 206.576C341.765 205.968 396.641 198 397.88 198C398.303 198 401.16 201.488 404.228 205.75C410.273 214.149 423.164 227.409 429.374 231.616C435.221 235.578 444.438 239 449.258 239C461.644 239 461.898 227.791 450.064 203.311L444.172 191.121L446.836 190.588C448.301 190.295 460.75 188.429 474.5 186.441C488.25 184.453 499.664 182.664 499.865 182.465C500.4 181.935 495.634 173.609 464.683 121C426.381 55.897 408.952 26.7 407.623 25.414C406.813 24.63 402.871 24.855 393.5 26.217Z" fill="#C484E3"/>
</g>
<defs>
<clipPath id="clip0_5_12">
<rect width="600" height="600" fill="white"/>
</clipPath>
</defs>
</svg>
